<?xml version="1.0" encoding="UTF-8"?><svg id="a" xmlns="http://www.w3.org/2000/svg" viewBox="0 0 447.06 190.68"><defs><style>.b{fill:#4f5358;}</style></defs><g><path class="b" d="M76.51,39.34c1.99,0,3.8,.18,5.43,.82,2.44,.9,4.61,2.17,5.88,3.98,.36,.36,.18,.9,.54,1.27,.36,.36,.82,.45,1.09,1,.63,1.36,1.09,1.63,1.27,2.99,.09,.72,1,2.44,1,5.16,0,.99-.18,3.89-.63,5.25-.09,.36-1.09,.81-1.09,1.18s.09,.63,.09,.9c0,1.17-.36,1.63-.63,2.35-.09,.27-1.36,2.62-1.72,2.9-1.45,1.09-2.98,2.44-5.07,3.44-1.45,.72-3.44,.99-5.43,.99-.91,0-1.81,0-2.72-.18-1.72-.27-3.71-1.81-4.7-3.44-.54-.82-.72-1.81-.72-2.81,0-2.26,1.18-4.61,2.9-5.7,.54-.36,1.26-.81,2.08-.81,.27,0,.63,.09,.9,.27,.63,.36,1.36,.81,1.36,1.54,0,.27-.18,.63-.36,.99-.18,.36-.72,.63-1,.72-.81,.36-1.9,.09-2.62,.54-.54,.54-1.09,1.36-1.09,2.26,.18,1.9,.72,2.62,2.08,3.44,.82,.54,1.9,.72,2.8,.72,1.36,0,2.62-.45,3.17-1.09,.27-.27,2.44-.9,2.71-1.27,.63-.82,1.36-1.18,2.17-2.44,1.18-1.9,2.35-3.89,3.17-7.24,.18-.72,.18-1.54,.18-2.44v-1.63c0-1.27-.36-3.08-.82-4.52-.81-2.53-2.53-4.43-5.97-5.07-.9-.18-1.99-.72-2.9-.72-.27,0-.54,.09-.72,.18-.27,.18-.82,.36-1,.54-.18,.09-.45,.18-.72,.18-.63,0-1.45-.18-2.17-.18-.36,0-.72,0-1.09,.18-1.99,.9-4.61,1.45-6.51,2.9-.09,.09-.18,.09-.27,.09-.36,0-.72-.36-1.27-.36-.81,.36-.81,1.63-1.54,2.08-.36,.27-1.09,.18-1.45,.45-.27,.18-.36,.54-.54,.72-.72,.18-3.89,2.62-4.34,3.35-.18,.18-1.81,1.54-2.44,2.17l-1.99,1.9c-.99,.99-1.36,2.26-2.26,3.26-.45,.54-1.18,.63-1.54,1.27s-.36,1.45-.72,2.26c-.27,.72-1.27,1.72-1.72,2.44-.36,.63-.81,2.26-2.17,4.52-.09,.18-.45,.09-.54,.27-.45,1.27-.09,2.99-.45,3.98-.18,.36-1,.81-1,1.27v1.72c0,.45-.54,1.27-.54,1.9,0,.09,.27,.9,.27,1.81-.27,.9-.18,.9-.27,1.81-.18,1.81-.72,3.62-.72,5.34,0,.36,0,.72,.09,1.09l.45,1.81c.18,1.27,.36,1.99,.36,2.98,0,.63,1.27,1.72,1.54,2.26v.45c0,1.99,5.07,4.52,6.51,4.7,.54,.09,1.27,.09,2.08,.09,2.17,0,4.97-.27,6.78-1.36,2.35-1.45,4.16-2.62,6.15-4.43l2.17-1.81c1-.81,1.09-1.72,2.08-2.44,.36-.27,.72-.45,.99-.81,.45-.63,.36-1.54,.91-2.08l1.54-2.08c0-.72,3.08-3.62,3.8-4.25,1-.9,2.08-1.81,3.53-1.81,1,0,1.81,1,1.81,2.08,0,.27-.36,.54-.9,.63-1.09,.18-1.45,.72-2.35,1.09-.82,.36-2.35,3.08-2.53,3.98-.18,.72,0,1.45-.27,2.26-.82,2.9-2.17,6.6-2.72,9.95-.18,1.18,0,2.35-.27,3.53-.18,.81-1.27,2.08-1.27,2.98v1.72c0,.91-.99,2.35-.99,3.26v1.26c0,.82-1.27,1.45-1.27,2.26v1.99c0,1.18-1.63,4.52-2.08,5.52,0,1.18-.9,2.26-1.36,3.35,0,.27,.09,.45,.09,.72-.27,.63-1.63,1.27-1.63,1.72v1.27c0,.45-.45,1.36-.72,1.81-.27,.27-.91,.72-1,1.09-.09,.27-.09,.72-.27,1-.36,.45-1.18,.72-1.54,1.18-.55,.54-.09,1.26-.72,1.81-.18,.36-.54,.36-.82,.54v.55c-.45,.36-1.09,.72-1.45,1.26-1.99,2.62-3.44,3.26-4.61,4.16l-1.72,.91c-.45,.81-1.45,.36-2.26,.63-.45,.18-.72,1.09-1.27,1.26-2.26,1.09-5.97,1.09-8.59,1.81-.63,.18-1.54,.27-2.53,.27-2.71,0-6.33-.54-7.69-.54-.09,0-.99-.36-1.63-.36-4.16,0-7.24-3.62-10.04-5.97-.36-.36-.72-.36-.99-.72-.27-.36-.27-.99-.54-1.45-.27-.45-1.18-.81-1.18-1.45,0-.09-.82-1.54-1.18-2.35,0-.09-.09-.18-.09-.27,0-.27,.27-.63,.27-.9,0-.72-.91-1.72-1-2.44-.09-.99-.36-1.72-.36-2.62v-.36c0-1.18,.36-3.8,.72-5.25,1.63-5.25,4.25-10.22,8.59-12.3,.27,0,1.09-.36,1.36-.36,.45-.18,.9-.9,1.36-.9s1.09-.36,1.54-.54c1.81-.63,2.53-.72,5.43-.72,.45,0,2.53,.36,3.26,.36,1.18,.09,3.35,.82,4.97,2.81,.54,.63,.91,.99,1.27,1.72,.36,.72,.45,1.54,.45,2.35,0,.72-.09,1.54-.09,2.35-.09,.72-.63,2.26-.9,2.81-.54,.72-.63,1.18-1.72,1.54-.54,.18-1.18,.27-1.72,.27-1.27,0-2.44-.45-2.99-1.63-.09-.18-.09-.36-.09-.54,0-.54,.18-1.27,.54-1.72,.91-1.27,1.9-1.18,3.44-1.36,.27-.55,.54-1.27,.54-1.99,0-.36-.09-.72-.27-1.09-.27-.82-1.09-1.9-1.9-2.44-1.18-.82-2.8-1.18-4.43-1.18s-3.26,.36-4.07,.91c-.72,.36-2.17,1.36-2.9,2.08-.72,.63-1.18,1.45-1.9,2.26-.27,.36-.09,.9-.45,1.18l-.72,.63c-.09,.18-.09,.36-.09,.45-.27,.27-.72,.45-.99,.82-.45,.54-.82,2.44-.91,3.26v1.45c0,.72-.63,1.09-.9,1.63-.27,.63-.45,1.72-.45,3.07,0,2.17,.36,4.89,1.18,7.42,1.27,3.98,6.51,9.05,10.86,9.05,.63,0,1.27,.18,1.9,.18h.36c.99,0,2.35,.81,3.35,.9,.63,0,2.08-.63,2.9-.72,2.35,0,4.34-.81,6.33-1.81,.45-.18,1-.18,1.54-.45,.72-.36,1.9-1.45,2.53-1.72,.54-.27,1.81-1.27,2.35-1.72,.72-.63,1.99-2.17,2.35-2.8,.36-.54,1-1.18,1.27-1.72,.9-1.72,1.27-2.71,2.26-4.52,.99-1.81,1.9-3.89,2.8-5.88,.36-1.09,2.26-7.87,2.44-8.69l.54-1.81c.27-.99,1.27-2.53,1.45-3.53,.18-.72,.09-1.54,.27-2.26l1.81-7.51c.18-.81,1.09-2.71,1.09-3.62,0-.18,0-.27-.09-.36-.18-.18-.27-.45-.45-.45-.09,0-.18,0-.36,.18-1.54,1.54-2.17,2.08-3.62,3.08-.45,.27-.9,.9-1.27,1.18-1.09,.72-1.45,.54-2.62,1.27-.18,.09-.54,.63-1.63,1.09-.55,.18-1,.09-1.54,.18-.18,.09-.72,.72-.99,.72-.45,0-1.9,.27-2.35,.36-.72,.18-1.54,.27-2.44,.27-3.44,0-7.33-1.27-9.59-2.9-1.09-.81-2.44-2.44-3.44-3.8-2.53-3.44-3.71-7.96-3.71-13.03,0-3.17,.36-6.42,.99-9.77,.18-.9,.09-1.9,.36-2.8,1.09-3.8,2.53-5.34,3.44-7.6,.27-.81,.9-1.81,1.27-2.62,1.81-3.98,4.61-7.42,7.51-10.68,3.44-3.8,7.33-7.15,12.12-8.96,.36-.18,.99-.18,1.27-.18,2.53,0,1.9-1.99,7.51-3.26,1.45-.36,3.89-.45,5.16-.54,1.36-.09,2.71-.18,3.98-.18Z"/><path class="b" d="M78.86,115.24c-.72,0-1.54-.18-1.99-.54-.27-.18-.63-.45-.63-1.09v-.36c.09-.72,.54-.99,1.09-.99,.18,0,.36,0,.54,.09,.82,.18,1.09,.9,1.54,1.09,.09,0,.27,.09,.54,.09,.45,0,.99-.09,1.27-.27,.18-.09,.54-.63,.72-.72,1.45-1,1.72-1.54,2.62-2.72,.45-.54,.72-.54,1.09-1.09,.63-.63,.82-1.72,1.18-2.26,.09-.09,.9-.27,.99-.36,.54-.81,.45-1.81,.82-2.44l.18-.27c1.09-1.45,1.72-2.35,2.08-2.99,.54-.9,2.62-3.8,3.62-5.61,.36-.63,.72-1,1.09-1.54,.27-.36,.63-1.45,.72-1.54,.18-.45,.99-1.72,.99-3.08v-1.81c0-2.44,.63-4.52,1.99-5.61,.36-.36,.82-.63,1.27-.82,.18,0,.36-.09,.45-.09,.45,0,.82,.27,1.27,.72,.45,.54,.72,1.09,.72,1.72,0,.36-.09,.72-.18,1.09-.36,1.09-1.63,1.81-1.99,2.9-.09,.18-.09,.27-.09,.45,0,1.18,1.18,2.99,2.08,3.53,1,.63,3.26,.27,4.16,.81,.91,.54,1.18,1.27,1.18,2.17,0,.36,0,.72-.09,1.09-.45,2.26-1.63,4.43-2.44,6.15-.72,1.45-.63,3.44-.99,4.79-.18,.63-.27,1.27-.27,1.99,0,1.45,.45,2.99,1.26,3.53,.45,.27,.91,.36,1.36,.36,1.18,0,2.44-.72,3.26-1.27,1.63-.99,3.53-2.71,3.53-2.71,1.18-1.36,3.26-3.62,4.61-4.7,1-.72,1.99-3.35,3.62-3.35,.18,.09,.45,.09,.54,.27,.09,.09,.27,.36,.27,.54,0,.09-.09,.27-.18,.36-.63,.9-1.9,2.35-2.53,3.17-.27,.27-.63,.36-.9,.54-.36,.27-.54,.72-.72,1-.63,.72-1.45,1.27-2.17,1.81-.72,.45-.99,1.45-1.63,1.99-1.99,1.45-4.07,2.9-6.33,4.07-1.18,.54-2.44,.91-3.71,.91-2.26,0-4.43-1-5.43-3.08-.27-.45-.27-.99-.27-1.54,0-.72,.09-1.63,.09-2.44,0-.54,0-1-.18-1.63,0-.63,.27-2.26,.45-2.81,.45-1.72,.63-3.08,1.18-4.7,.27-1,1.27-2.17,1.27-3.26,0-.18,0-.45-.09-.63-.45-1-1.09-1.99-2.44-2.17-.09-.09-.27-.18-.36-.18s-.18,.09-.27,.18c-1,1-1.45,1.81-2.17,2.81-.72,1.27-2.17,4.43-3.17,5.34-.54,.45-.99,1.72-1.45,1.99-.63,.9-.54,1.81-1.36,2.35-.27,.18-.72,1.09-1.36,2.08-.45,.72-1.36,2.35-1.99,3.26-.9,.91-1.54,1.81-2.44,2.62-2.08,1.99-2.72,2.35-4.16,2.62-.36,.09-.99,.18-1.63,.18Z"/><path class="b" d="M148.34,104.2c-.27,.18-.82,.27-1,.45-.36,.36-.45,.9-.81,1.18-.54,.36-1.09,.45-1.63,.9-.72,.45-2.44,2.8-3.26,3.35-.54,.36-1.18,.36-1.63,.72-.63,.36-2.44,2.17-3.08,2.17-1.81,.09-3.53,1.72-5.61,1.72-.18,0-.45-.09-.63-.09-.63,0-1.36,.54-2.17,.54-.18,0-.27-.09-.45-.09s-2.44-.27-2.62-.27c-2.35-.63-3.35-1.45-3.98-3.53-.18-.45-.54-1-.63-1.54-.36-1.18-.45-1.99-.45-2.9s.09-1.72,.45-2.89c.27-1.18,.18-2.08,.63-3.17,.54-1.63,1.36-3.26,2.44-4.89,.09-.18,.72-.54,.81-.72,.45-.63,.45-1,.91-1.72,.36-.72,.9-1.09,1.36-1.63,1.27-1.54,2.81-2.9,4.16-3.98,1.09-.72,3.89-2.26,6.7-2.26,1.36,0,2.62,.54,3.44,1.54,.81,.9,1.18,1.99,1.18,3.08,0,1.45-.54,2.71-1,3.35-.27,.27-.63,.45-.81,.72-.54,.63-.45,1.54-.91,2.17-.36,.54-1.26,1-1.54,1.54-.27,.18-.63,.72-.82,.99-1.26,1.36-2.35,1.81-3.62,2.35-.09,.09-.91,.09-1.27,.27-.63,.18-1.18,.82-1.63,1.09-1,.72-2.8,.36-3.8,1.18-.27,.27-.63,2.08-.72,2.53-.09,.27-.09,.72-.09,1.18,0,.63,0,1.18,.09,1.72,.45,2.44,2.08,3.44,4.34,3.44,.54,0,1.09-.09,1.72-.18,3.44-.63,4.52-1.63,8.5-4.34,1.36-.99,3.26-2.62,4.53-3.71,.72-.54,1.36-1.63,2.26-1.99,.9-.36,1.99-3.62,3.71-3.71,.18,0,.54,.18,.54,.36,0,.27,0,.9-.18,1.18-.18,.54-1.36,1.09-1.81,1.54-.54,.54-1.36,2.08-1.63,2.35Zm-9.95-15.74c-.45,0-1.18,.18-1.72,.63-.63,.54-1.09,1.27-1.81,1.81-.63,.54-1.36,.81-2.08,1.27-.27,.27-.27,.63-.45,.9-.36,.36-.9,.63-1.27,.99-.81,.72-.81,1.81-1.36,2.81-.63,1.27-1.36,1.54-1.36,3.44,.36,.18,.82,.27,1.27,.27,1.27,0,2.44-.63,3.35-1,.63-.27,1.63-.72,2.44-1.36,.27-.18,.45-.63,.72-.9,2.26-2.17,3.62-4.61,3.62-7.42,0-.18-.09-1-.81-1.36-.09-.09-.27-.09-.54-.09Z"/><path class="b" d="M176.65,104.2c-.27,.18-.82,.27-.99,.45-.36,.36-.45,.9-.82,1.18-.54,.36-1.09,.45-1.63,.9-.72,.45-2.44,2.8-3.26,3.35-.54,.36-1.18,.36-1.63,.72-.63,.36-2.44,2.17-3.07,2.17-1.81,.09-3.53,1.72-5.61,1.72-.18,0-.45-.09-.63-.09-.63,0-1.36,.54-2.17,.54-.18,0-.27-.09-.45-.09s-2.44-.27-2.62-.27c-2.35-.63-3.35-1.45-3.98-3.53-.18-.45-.54-1-.63-1.54-.36-1.18-.45-1.99-.45-2.9s.09-1.72,.45-2.89c.27-1.18,.18-2.08,.63-3.17,.54-1.63,1.36-3.26,2.44-4.89,.09-.18,.72-.54,.82-.72,.45-.63,.45-1,.9-1.72,.36-.72,.91-1.09,1.36-1.63,1.27-1.54,2.8-2.9,4.16-3.98,1.09-.72,3.89-2.26,6.69-2.26,1.36,0,2.62,.54,3.44,1.54,.82,.9,1.18,1.99,1.18,3.08,0,1.45-.54,2.71-.99,3.35-.27,.27-.63,.45-.82,.72-.54,.63-.45,1.54-.9,2.17-.36,.54-1.27,1-1.54,1.54-.27,.18-.63,.72-.82,.99-1.27,1.36-2.35,1.81-3.62,2.35-.09,.09-.9,.09-1.27,.27-.63,.18-1.18,.82-1.63,1.09-.99,.72-2.8,.36-3.8,1.18-.27,.27-.63,2.08-.72,2.53-.09,.27-.09,.72-.09,1.18,0,.63,0,1.18,.09,1.72,.45,2.44,2.08,3.44,4.34,3.44,.55,0,1.09-.09,1.72-.18,3.44-.63,4.52-1.63,8.5-4.34,1.36-.99,3.26-2.62,4.52-3.71,.72-.54,1.36-1.63,2.26-1.99,.91-.36,1.99-3.62,3.71-3.71,.18,0,.54,.18,.54,.36,0,.27,0,.9-.18,1.18-.18,.54-1.36,1.09-1.81,1.54-.54,.54-1.36,2.08-1.63,2.35Zm-9.95-15.74c-.45,0-1.18,.18-1.72,.63-.63,.54-1.09,1.27-1.81,1.81-.63,.54-1.36,.81-2.08,1.27-.27,.27-.27,.63-.45,.9-.36,.36-.91,.63-1.27,.99-.82,.72-.82,1.81-1.36,2.81-.63,1.27-1.36,1.54-1.36,3.44,.36,.18,.81,.27,1.26,.27,1.27,0,2.44-.63,3.35-1,.63-.27,1.63-.72,2.44-1.36,.27-.18,.45-.63,.72-.9,2.26-2.17,3.62-4.61,3.62-7.42,0-.18-.09-1-.82-1.36-.09-.09-.27-.09-.54-.09Z"/><path class="b" d="M182.34,120.85c0,.63,.81,2.08,.81,2.71,0,.72,1.18,1.63,2.35,2.81,.54,.54,1.18,.63,1.72,.63,.45,0,.82-.09,1.18-.09,.54,0,.99,.18,1.18,.72,.09,.18,.09,.36,.09,.55,0,.72-.54,1.26-1.36,1.26-.18,0-.27-.09-.45-.09-.82-.18-2.35-.72-2.99-1.17-5.16-3.71-6.69-7.96-6.97-16.47v-.36c0-.27,0-.45,.09-.63,0-.09-.09-.45-.09-.91,0-.36,.09-.72,.27-.81,0-.63-.09-1.18-.09-1.81,.45-3.8,2.08-9.05,3.53-12.58,.18-.63-.09-1.45,.36-1.99,.54-.72,1.45-1.9,1.45-2.9,0-.81,.18-1.81,.45-2.53,.27-.36,.82-.9,.99-1.36,0-.27-.18-.54-.18-.81,0-.09,0-.18,.09-.27,.63-1.81,1.72-2.9,1.81-4.89,0-.63-1.36-.63-1.81-.63-.36,0-.63,.09-.99,.09-.82,0-1.36-.9-1.63-1.45,0-.09,.9-.45,1.36-.45,.63,0,1.36-.09,2.08-.27l3.17-.81c.18-1.54,1.27-2.71,1.9-3.89,.45-.63,.45-1.36,.82-2.17,.72-1.36,2.17-2.17,3.07-3.53,.91-1.45,2.08-2.99,3.53-4.25,1.27-1.09,1.72-3.26,3.53-3.26,.27,0,.82-.09,1.18-.09,.18,0,.36,0,.45,.09,.18,.18,.36,.45,.36,.72,0,.09,0,.18-.09,.27-1.09,1.99-2.26,4.07-3.44,6.33-.63,1.09-1.81,2.17-2.35,3.17-.18,0-.27,.09-.45,.18-.27,.36-.09,.81-.36,1.27,0,.18-.81,.82-.9,.9-.09,.27-.09,.54-.09,.72v.63c-.18,.63-.72,1.27-.72,2.17,.27,.27,.54,.36,.82,.36,.54,0,1.09-.18,1.45-.27,.09-.09,.27-.09,.36-.09,.27,0,.63,.09,.72,.18,.99-.18,2.08-.54,2.9-.72,2.17-.54,4.7-1.18,8.23-1.27h1.36c1.99,.18,4.43,.72,4.43,2.62-.18,1.99-.99,2.53-1.99,3.53-.18,.09-.45,.36-.72,.36-.09,0-.09-.27-.09-.54,.09-.63,.18-.9,.18-1.27,0-.27-.09-.54-.18-.81-.18-.36-.45-.54-.81-.72-.45-.27-1.63-.54-1.81-.54-.54-.18-.72-.27-1-.27s-.54,.09-1.17,.09c-.27,0-.63,0-1.18-.09-.82,0-1.18,.18-2.08,.36-1.9,.27-1.54,.54-2.71,.63-.36,0-.99,.18-1.27,.27h-1.54c-.36,0-.72,0-1,.09-1.36,.36-2.9,.63-4.07,1-.36,1.18-1.26,2.53-1.99,3.53-.54,.72-.54,1.99-.99,2.9l-1.18,2.35c-.18,.72-.18,1.36-.54,2.08-.55,1.18-1.36,2.62-1.72,3.89-.72,2.08-1.27,4.16-1.9,6.15-.63,1.9-.72,3.53-1.63,5.25-.27,.45-.91,1.81-1,2.35-.18,2.53-1.18,5.07-1.18,7.42,0,.54,.09,1,.18,1.54,.18,.9,0,2.44,.27,4.88Z"/><path class="b" d="M205.76,85.2c.35,0,.61,.18,.95,.36,.87,.63,.43,1.45,.95,1.99,.09,.18,.52,.72,.61,.99s.09,.45,.09,.72c0,1.9-1.74,3.53-2.52,5.61-.17,.45-.61,1-.78,1.45-.61,1.45-1.22,2.9-1.74,4.34-.26,.82-.17,1.45-.43,2.26-.44,1.09-.52,2.62-1.13,3.89-.09,.27-.35,.36-.61,1.09-.09,.18-.09,.36-.09,.54v.54c-.17,.72-.26,1.45-.26,1.99,0,.27,0,.45,.09,.63,.09,.54,.61,.82,1.22,.82,.26,0,.61,0,.87-.18,.78-.36,1.3-.45,2.08-.9l.35-.54c.7-.45,1.39-.72,2.08-1.18,.87-.72,1.39-1.72,2.17-2.53,.17-.27,.61-.27,.78-.54,.61-.54,1.13-1.09,1.56-1.81,.26-.36,1.13-.81,1.48-1.18,1.04-.72,2.78-3.71,3.64-3.71,.61,0,1.04,.27,1.04,.9,0,.09,0,.18-.09,.36-.26,.54-1.65,2.35-2.17,2.62l-.61,.18c-.52,.63-.95,1.36-1.56,1.9-1.56,1.54-3.39,2.62-4.86,4.25l-.7,.9c-.26,.18-.52,.09-.87,.27-.43,.27-.78,.99-1.22,1.36-.7,.54-2.43,1.27-3.12,1.54-.78,.27-2.34,.9-3.39,.9-.17,0-.26-.09-.44-.09-1.39-.27-2.78-1.09-3.38-2.08-.26-.36-.35-1.45-.35-2.53,0-.9,.09-1.81,.17-2.26,.87-3.62,1.74-7.15,3.12-10.22,0-.09-.17-.36-.26-.27-.35,.18-.78,.81-1.22,1.18s-.95,.72-1.39,1.18c-.26,.27-.35,.63-.61,.9-.26,.27-.61,.45-.78,.72-.43,.63-1.04,1-1.22,1-.52,0-.78-.54-.78-.9,0-.45,1.13-1.45,1.39-1.9,.17-.36,.61-.27,.87-.54,.26-.36,.35-.9,.7-1.27,.17-.27,.35-.54,.61-.81,.26-.27,.61-.45,.78-.63,.78-.81,1.21-1.72,1.91-2.62,.95-1.27,.95-1.54,1.74-2.35,.61-.63,1.22-1.9,2.17-2.9,.26-.36,.61-.9,.95-1.27,.7-1.09,.44-1.45,1.48-1.99,.26-.18,.52-.18,.7-.18Zm14.67-26.6c.27,.18,.36,.63,.36,1.18,0,.9-.27,2.17-.45,2.9-.63,2.17-3.07,7.33-5.07,7.33-.54,0-.72-.45-.72-.99,0-.27,0-.45,.09-.81,.27-1.36,.63-1.9,.63-2.81,0-.27,0-.63-.09-.99-.09-.45-.18-.72-.18-1,0-.36,.09-.63,.27-1.09,.45-1,1.54-1.63,2.26-2.35,.45-.54,.45-1.72,1.63-1.72,.54,0,1,.18,1.27,.36Z"/><path class="b" d="M245.4,93.26c0-2.08-.72-2.99-1.72-2.99-.72,0-1.63,.45-2.53,1.45-.72,.82-.72,1.27-1.54,1.9-.45,.36-1.18,.81-1.54,1.27l-.63,1.27c-.91,.81-1,1.09-1,1.18s-.09,.45-.18,.54c-.36,.36-.82,.45-1.09,.81-.45,.36-.63,1-1.18,1.45-1.54,1.81-2.99,3.71-4.34,5.7-.99,1.27-1.18,2.62-1.99,3.71-.18,.27-.72,.54-.81,.81-.09,.18-.09,.45-.09,.72s0,.45-.09,.63c-.45,1.09-.54,2.9-1.54,3.26-.63,.18-2.17,.27-3.35,.54h-.45c-.81,0-1.72-.36-1.72-1.36,.09-.36,.09-1.27,.18-1.63,.9-3.89,1.18-3.17,1.9-4.53,.18-.45,0-1.18,.27-1.72,.82-1.9,1.72-4.43,2.62-6.51,.27-.72,.09-1.45,.36-1.99,.63-2.44,1.9-3.71,2.17-5.97-.09,0-.36-.27-.45-.27-.45,.09-.9,.9-1.9,1.63-.36,.27-.99,1.63-1.81,2.44-.81,.81-1.36,1.72-1.99,2.26l-1.9,1.72c-.81,.9-.81,1.18-1.45,1.63-.27,.27-.63,.36-.91,.36-.18,0-.27,0-.36-.09-.18-.18-.36-.36-.36-.63,.09-.45,.27-.72,.63-1.09,.36-.36,.72-.54,1.09-.9,.45-.45,.36-.63,1.26-1.54,.72-.72,1.45-1.72,2.08-2.44,2.53-2.9,4.97-5.88,7.06-9.05,1.09-1.72,2.17-2.62,3.98-3.53,.45-.27,1.18-.63,1.63-.63,.72,0,.63,.45,.82,1.27,0,1.36-.82,4.43-1.09,4.98-.45,1.17-.55,2.26-.82,3.53-.09,.27-.45,.63-.54,.9,0,.09,.09,.45,.09,.81,0,.18,0,.27-.09,.45-.45,.99-.45,1.72-.82,2.71-.36,1.17-1.45,3.62-1.45,4.43,0,.09,0,.27,.09,.27,.63,0,1.81-1.45,2.53-2.44,1.81-2.17,2.17-2.44,3.98-4.7,.91-1.18,2.72-2.8,3.8-3.89,.99-.99,1.54-1.72,2.71-2.53,1.36-1.09,2.9-1.81,4.34-1.81,1.18,0,2.35,.54,3.26,1.81,.82,1.27,.82,2.9,.82,4.61v.45c-.09,.72-.36,.99-.36,1.72-.09,.36-.27,.63-.27,1.09,0,.18,0,.36,.09,.54,.09,.18,.09,.45,.09,.72,0,.72-.18,1.72-.18,2.44,0,1.54-.36,2.71-.54,3.53v.63c0,.9,.18,2.08,.18,2.8-.09,.63-.09,1.09-.09,1.45,0,1.45,.45,2.8,1.27,3.35,.36,.27,.72,.36,1.27,.36,.91,0,1.9-.36,2.62-.72,.81-.45,2.62-2.17,3.17-2.71,.91-.91,.63-.99,1.54-1.81l1.63-1.27c1.09-1,3.71-4.89,4.43-5.07,.27-.09,.45-.18,.63-.18,.09,0,.18,0,.27,.09,.27,.18,.36,.54,.36,.9,0,.18,0,.27-.09,.45,0,.81-1.54,2.17-2.08,2.62-.27,.27-.63,.36-.91,.63-.18,.18-.36,.72-.54,.9-1.09,1.17-2.26,2.26-2.8,2.9l-1.18,.99c-1.27,1.27-1.18,1.45-3.89,3.35-.63,.45-1.09,.63-1.72,.99-.27,.09-.63,.54-.91,.63-.9,.45-1.9,.82-2.99,1.09-1.09,0-2.71-.27-3.26-.63-.82-.45-1.63-1.45-1.99-2.26-.09-.27-.18-.45-.18-.63,0-.27,.09-.63,.09-.99,0-.18,0-.36-.09-.54-.09-.27-.54-.72-.54-.99-.09-.82-.09-1.63-.09-2.35v-2.9c0-.9,0-1.99,.09-3.89,.09-2.62,.99-4.34,.99-6.51Z"/><path class="b" d="M282.03,115.78c.09-.09,.09-.18,.09-.27,0-.18-.09-.27-.09-.36,.81-2.26,1.36-4.25,1.63-6.78,0-1,.82-1.54,.82-2.44,.18-.81,.09-1.36,.36-1.99,.36-.63,.36-.99,.36-1.72,.18-1.54,1.09-4.34,1.27-5.7h-.36c-.99,1.45-2.08,3.17-3.17,4.43-1.54,1.72-3.26,3.62-4.97,4.97-.27,.27-.72,.27-.99,.63-.27,.27-.36,.63-.55,.9-.27,.27-.81,.91-2.08,1.81-1.72,1.18-3.17,2.62-4.97,3.8-.91,.45-2.9,1.72-4.89,1.72-.9,0-1.81-.27-2.53-1-.55-.45-1-2.44-1-3.89,0-3.8,1.18-7.51,2.99-10.13,.63-.54,.54-1.36,.9-1.81,.27-.36,.45-.9,.91-1.27,.82-.81,1.36-2.26,1.99-3.17,.63-.81,1.72-1.09,2.35-1.72,.18-.09,.27-.54,.45-.72,.54-.54,1.36-.82,1.81-1.27,.27-.36,.72-.72,1.09-1.09,1.26-1,3.35-1.72,4.88-2.26,1.18-.36,3.08-.72,4.8-.72,.82,0,1.63,.09,2.26,.27,2.99,1,3.62,2.35,4.25,2.35,.63-.9,.45-2.44,1.27-2.99,.54-.45,1.54-1.27,2.44-1.54,.36-.09,1.36-.54,1.72-.54,.45,0,.63,.36,.63,.82-.09,2.98-1.99,5.61-2.44,7.69-.18,.72-.09,1.36-.27,1.99-1.81,5.7-2.9,12.57-4.7,17.91-.36,.9-.45,1.81-.54,2.71-.09,.54-.18,1.18-.36,1.81-.72,2.17-1.63,5.7-2.08,7.33,1.09-.09,2.35-.18,3.71-.18,1.9,0,3.89,.18,5.25,.63,.36,.18,1.18,.36,1.54,.45,.82,0,2.26,.99,2.8,1.54,.72,.82,1.09,1.63,1.09,2.26,0,.45-.18,.82-.45,1-.27,.27-.72,.27-.9,.27-.45,0-.91-.27-1.18-.54-.54-.36-.54-1.63-1.09-1.9-1.72-.9-4.53-1.45-7.15-1.45-1.54,0-3.08,.18-4.16,.63-.54,1.63-2.17,5.79-2.8,7.33-.63,1.63-.63,1.36-1.36,2.99-.27,.45-.72,.82-.9,1.18-.36,.9-.27,1.63-.82,2.35l-3.89,7.69c-.18,.18-.9,.72-1.27,.9-.27,.18-.09,.36-.27,.63-.36,.54-1.18,.72-1.36,1.09-.18,.27-.18,.45-.27,.63-.27,.72-.09,1.27-.45,1.81-4.43,5.88-8.14,9.68-14.57,13.48-2.71,1.63-5.07,1.99-7.51,2.26-1.26,.09-1.72,.81-2.9,.9-.54,.09-.99,.09-1.45,.09s-.99,0-1.54-.09c-2.26-.09-5.07-.81-6.88-3.08-1.45-1.72-1.9-3.8-1.9-5.88v-.54c.09-2.81,.27-4.25,1.26-6.51,.63-1.45,1.81-3.44,2.9-4.7,.72-.72,.9-1.54,1.54-2.26,1.9-2.35,3.71-4.25,6.15-6.06,1.27-.81,2.72-2.26,3.8-2.99,1.09-.9,2.35-1.26,3.44-2.08,.72-.36,1.36-1.36,2.08-1.81,.54-.18,1.45-.27,1.9-.54,.36-.45,.72-1.09,1.27-1.45,.63-.18,1.72-1.09,2.44-1.36,1.27-.63,2.44-.99,3.71-1.45,3.44-1.72,7.78-3.44,10.95-4.07,1.45-.36,2.53-.45,3.35-1.09,.45-1.26,2.35-6.69,2.62-7.87Zm-39.18,30.76c-.18,.63-1.45,2.17-2.26,3.17-1.9,2.62-1.9,3.08-3.26,6.61-.27,.82-.45,1.99-.45,3.26,0,1.9,.36,3.98,1.27,4.89,1.45,1.54,3.35,2.17,5.52,2.17,4.16,0,8.96-2.35,11.58-4.34,1.27-1,2.08-1.36,4.25-3.17,.36-.36,.81-.45,1.18-.72,.72-.54,1.18-1.54,1.81-2.08,.45-.36,.63-.91,.99-1.18,.99-.82,2.08-2.71,2.8-3.71,.09-.18,.27-.27,.45-.45,1.72-1.99,3.35-4.07,4.34-6.42,0-.27,.09-.54,.18-.81,.18-.72,1-1.54,1.27-2.17,.18-.63,.27-1.26,.72-1.81,1.27-2.62,2.35-5.25,3.26-8.32,.63-1.18,1.36-3.26,1.63-4.61-1,0-1.63,.27-2.26,.36-.36,0-1.09-.18-1.36-.18-.54,.09-1.09,.72-1.45,.81-.81,.27-.99,.09-1.81,.36-.9,.27-1.45,.45-2.17,.9-1.63,.54-3.08,1.27-4.7,2.08-.72,.18-1.63,.45-2.26,.82-1.99,1.27-4.88,3.35-7.42,4.8-1.09,.54-2.53,1.54-3.62,2.35-1.81,1.09-3.35,2.9-4.88,4.07-.45,.36-.45,1.18-1.09,1.63-.63,.72-1.99,.99-2.26,1.72Zm45.06-56.18c0-1.45-1.99-1.99-3.35-1.99-1.18,0-2.71,.36-3.62,.72-1.81,.9-3.35,2.53-4.89,3.98-.45,.54-1.45,.54-1.81,.9-.09,.18-.09,.36-.09,.54s0,.45-.09,.54c-.54,.54-1.27,1.27-1.63,1.81-.72,.72-1.09,1.45-1.54,2.35-.36,.45-1.45,1.17-1.72,1.63-.82,1.54-.82,2.62-1.54,4.16-.82,1.45-1.27,3.35-1.27,4.79,0,.36,0,.72,.09,1,.09,.36,.54,.63,.99,.63,1.54,0,2.9-1.18,4.16-1.9,.81-.54,1.27-1.63,1.99-2.08,.45-.45,1.54-.72,1.81-1.27,.18-.27,.09-.63,.36-.9,.45-.54,1.54-.82,1.99-1.54,0-.18,.09-.36,.18-.63,.18-.18,.63-.18,.81-.36,.72-.9,2.08-1.9,2.62-2.71,.45-.72,.36-1.27,.63-1.54,.99-.9,1.9-1.72,2.53-2.9,1.09-2.08,3.08-2.9,3.35-5.25Z"/><path class="b" d="M297.32,111.8c.18-1.18,1.09-1.9,1.72-2.53,.27-.27,.54-.72,1.26-.72,.54,0,1.63,.82,1.81,.82s.63,.09,.72,.27c.09,.09,.27,.54,.27,1.18,0,.27-.09,.63-.18,.9-.36,.9-.72,.36-.72,1.27,0,.18,0,.36-.09,.54-.45,.99-.72,1.45-2.08,1.63-.45,0-.91-.09-1.09-.27l-1-.81c-.18-.18-.72-.82-.72-1.09,0-.18,.09-.82,.09-1.18Z"/><path class="b" d="M319.66,102.85c0,.09,.27,.54,.27,.9,0,1.81-1.27,3.71-1.27,6.24,0,.45,0,.9,.09,1.36,.27,1.54,.81,2.71,2.44,3.07,.63,.18,1.26,.18,1.9,.18,2.26,0,4.34-.82,5.34-1.27,.82-.27,1.81-.54,2.71-.99,1.63-.82,2.08-1.54,3.71-1.54,.18-.09,.27-.72,.45-.82l1.09-.27c.63-.36,.63-.9,1.27-1.26,.82-.45,1.54-1.09,2.35-1.72,.27-.18,.72-.27,.99-.45,.63-.45,.82-1.45,1.36-1.9,.63-.45,1.72-1.27,2.17-1.9,.27-.27,.91-.45,1.18-.72,.63-.72,1.09-1.63,1.99-1.72,.81,0,.99,0,1.09,.09,.09,.09,.18,.36,.18,.82,0,.63-1.45,1.9-1.9,2.26-1.27,.9-2.8,1.9-3.8,3.17-.54,.72-1.9,1.63-2.71,2.17-2.35,1.63-4.61,3.08-7.15,4.61-.18,.18-1.36,.36-1.54,.55-.72,.54-1.36,1.17-2.17,1.54-.99,.45-2.44,.72-3.53,1.09-.45,.09-1.18,.45-1.45,.45-.99,0-1.72,.18-2.62,.36-.36,.09-.72,.09-1.18,.09-2.53,0-5.79-1.45-6.69-2.71-1.09-1.54-1.54-3.35-1.54-5.52,0-.45-.18-.91-.18-1.36s.63-1.63,.63-2.26c0-.72,.63-4.07,1.27-4.89,.36-.99,3.35-6.15,4.61-7.51,1.27-1.45,2.44-2.71,3.89-3.53,.63-.45,1.54-.18,2.17-.72,.27-.27,.63-.72,.9-.9,1.63-1,3.89-1.45,6.06-1.45,1.36,0,2.71,.18,3.62,.54,.9,.45,1.26,1,1.9,1.63,.27,.27,.54,.27,.72,.82,1.36-1.18,2.17-5.25,3.53-5.25,.99,0,1.54,1.63,1.54,2.35s-.18,1.45-.63,2.26c-.45,.99-.9,.45-1.09,.81-.18,.36-.09,.72-.36,1.09-.82,1-1.99,1.9-2.53,2.53-.81,.9-1.63,2.08-2.71,2.35-.27,0-.82-.45-.82-.72,0-.36,.91-.81,1.18-1.36,.36-.72,.72-1.36,.72-2.08,0-.27,0-.45-.09-.72-.36-.81-1.72-1.54-3.26-1.54-.72,0-2.44,.36-3.62,1.36-.36,.27-1.72,.81-2.08,1.18-.18,.09-.91,.18-1.09,.45-.91,.72-.82,1.36-1.54,2.17-1.09,1.18-1.09,1.54-2.17,2.53-.18,.18-1.36,.54-1.36,1.18,0,.09,.09,.36,.09,.63,0,.18-.09,.45-.18,.54-.54,.99-.9,1.9-1.45,2.71-.18,.27-.63,.63-.72,1Z"/><path class="b" d="M370.95,104.29h.82c.54,0,1.09,0,1.72-.27,.63-.18,1.09-.36,1.63-.72,.09-.09,.99-.36,1.36-.63,.72-.45,1.36-1,1.99-1.54,.36-.27,.72-.63,1.18-.63,.09,0,.63,.72,.63,1.09s-2.71,2.08-3.17,2.35c-.36,.27-.63,.54-1.18,.63-.18,0-.54,0-.72,.09-.27,.09-.36,.36-.63,.45-1.45,.54-2.71,.72-3.89,.72-1.45,0-2.53-.36-3.35-1-.72,1.36-1.09,1.18-1.9,2.26l-.18,.27c-.9,1.18-1.63,2.35-2.8,3.26-.45,.27-.72,.18-1.09,.54-.27,.27-.36,.99-.63,1.18-.09,0-.09,.09-.36,.27-1.09,.91-1.9,1.54-2.99,1.99-1.36,.54-2.8,.82-4.16,.82-2.62,0-5.07-1-6.24-3.26-.82-1.45-1.09-3.53-1.09-5.61,0-1.72,.18-3.44,.63-4.7,.45-1.09,.27-2.17,.91-3.08,.18-.27,.45-.45,.63-.63,.54-.9,.63-2.17,1.18-3.08,.99-1.54,2.08-2.9,3.35-4.43,.27-.36,.63-.36,.9-.63,.27-.36,.63-.99,.91-1.27,1.45-1.45,3.26-2.53,5.07-3.35,.09-.09,.27-.09,.45-.09h.63c1.18,0,2.53-.82,3.53-1,.45-.09,.99-.09,1.45-.09,1.72,0,3.07,.54,4.52,1.9,.81,.72,1.72,2.26,1.72,4.7v.63c0,.36-.18,.54-.27,.9,0,.27,0,1.18-.09,1.45-.18,1-.45,1.9-.9,3.08,0,2.44-1.18,4.97-2.17,6.6,.54,.54,1.45,.81,2.62,.81Zm-4.34-16.74c-.18,0-.45,.09-.63,.09-2.17,.36-3.26,1.09-5.07,2.35-1,.72-1.63,1.72-2.44,2.62-.72,.82-1.63,1.54-2.26,2.53-.36,.63-.09,1.18-1.18,1.9-.45,.27-1.18,.45-1.45,.9,0,.45,.18,.99,.18,1.27,0,1.27-1.36,3.26-1.72,4.43-.27,.81-.72,1.54-.91,2.35v1.81c0,1.81,.45,3.44,1.72,4.16,.63,.36,1.27,.45,2.08,.45,1.36,0,2.8-.45,3.98-1.36,1.27-.99,2.08-1.81,2.99-2.9,1.27-1.36,2.53-2.89,3.71-4.89-.63-.72-1.45-2.44-1.63-3.17-.09-.54-.18-.9-.18-1.36v-2.35c0-1.09,.9-1.99,1.9-2.62,.63-.36,1.36-.54,1.99-.54,.45,0,.9,.09,1.18,.36,.18,.18,.36,.27,.45,.45l.18-1.27c0-.18,.27-.54,.27-.72,0-.27-.27-.63-.27-.81-.09-.9-.18-1.9-.63-2.53-.54-.81-1.45-1.18-2.26-1.18Z"/><path class="b" d="M386.47,95.07c-.72,1.18-3.08,3.44-4.07,4.34-1.45,1.27-1.09,2.62-2.99,3.17-.18,.09-.36,.09-.54,.09-.36,0-.72-.09-1-.36-.09-.09-.09-.18-.09-.27,0-.18,.09-.36,.27-.63,.27-.36,.63-.36,1.09-.81,.36-.27,.45-.72,.82-1.09,.45-.45,.9-.63,1.36-1.18,.27-.27,.45-.81,.72-1.09,.36-.36,.18-.45,.54-.81,.27-.36,.63-.54,1-.9,1.36-1.54,2.62-3.26,3.71-4.43,1.27-1.45,1.9-3.8,3.53-4.89,.09-.09,1.72-1.18,2.62-1.18,.27,0,.54,.09,.72,.27,.45,.54,.45,1.18,.63,1.9,.09,.36,.09,.72,.09,1.09,0,1.63-.54,3.26-.9,4.98-.09,.54-1.63,4.43-1.72,5.79,0,.09,.09,.18,.18,.18,.91,0,3.44-3.26,4.07-3.89,1.45-1.36,2.17-2.53,3.53-3.35,.18-.09,.82-.09,.99-.18,.27-.18,.45-.81,.63-1.09,.91-1.18,2.53-1.9,4.16-2.9,.82-.54,2.44-1,3.98-1,1.09,0,2.08,.18,2.72,.81,.9,.81,1.26,1.9,1.26,3.08s-.36,2.44-.72,3.44c0,.18-.18,.36-.18,.54-.18,.72-.09,1.81-.45,2.71-.45,1.36-1.09,2.8-1.09,3.62,.36-.54,1.09-.72,1.54-1.18,.45-.45,.72-1.27,1.27-1.63,.45-.27,.72-.54,.9-.9,.36-.54,1.36-2.26,2.99-3.53,.18-.18,.72-.18,.91-.36,.27-.27,.54-.9,.81-1.18,2.08-1.72,4.34-3.17,6.06-3.17,.18,0,.36,.09,.54,.09,.9,.18,1.63,.54,2.17,1.27,.45,.72,.72,2.44,.9,4.34,0,.72-.27,1.09-.27,1.63,0,.36,.36,.9,.36,1.27,0,1.54-.09,2.9-.27,3.71-.09,.54-.09,1.36-.09,2.08v3.71c0,1.81,.18,3.89,1.27,4.7,.45,.27,1.09,.45,1.72,.45,.72,0,1.36-.18,1.72-.36,.36,0,.72-.54,1.18-.54,.18,0,.27,.09,.36,.18,.09,.18,.18,.27,.18,.45,0,.45-.45,.82-.91,1.18-.63,.45-.9,.72-1.54,1.09-.27,.09-.63,.54-.9,.63-.91,.45-1.9,.82-2.99,1.09-1.09,0-2.72-.27-3.26-.63-.81-.45-1.63-1.45-1.99-2.26-.36-.72-.09-2.35-.36-3.17-.09-.27-.54-.72-.54-.99-.09-.82-.18-2.9-.18-3.62v-3.53c0-1.63,0-3.44,.27-5.52v-.54c0-1.27-.54-1.99-1.36-1.99-.36,0-.82,.18-1.27,.54-.54,.45-1,1.18-1.63,1.54-.18,.09-.27,.18-.36,.18-.54,.27-.81,.81-1.27,1.18-.63,.45-.9,1.27-1.26,1.9-.45,.72-2.17,1.63-2.62,2.35-.18,.45-.27,.9-.45,1.27l-.36,.18c-.36,.45-.54,1.09-.99,1.63l-.45,.27c-.54,.81-.54,1.54-.9,2.44-.27,.72-1,1.36-1.18,2.08-.27,.81,0,1.09-.36,2.17-.09,.18-1.09,.45-1.27,.54,0,0,.91,.09,.91,.63,0,.18-.54,1.09-.91,1.45-.18,.27-.72,.54-1.09,.72-.45,.18-.9,.27-1.36,.27s-.82-.09-1.18-.36c-.91-.72-1.27-1-1.27-1.63,0-.18,0-.36,.09-.63,.18-.63,.09-1.18,.18-1.81l.72-2.17c.36-1.17,.18-2.17,.63-3.35l.99-2.62c.09-.45,.09-.72,.09-1.09s0-.63,.18-1.09c.72-2.44,2.17-4.61,2.17-6.69,0-.72-.18-1.36-.54-1.99-.18-.36-.63-.54-1.09-.54-.54,0-1.09,.18-1.54,.36-1.72,.72-3.71,2.71-5.7,4.43-.72,.63-1.09,1.81-1.9,2.44-2.26,1.72-4.98,4.61-6.24,7.24-.45,.9-.36,1.81-.81,2.71-.09,.09-.36,.09-.45,.18-.45,.54-.36,1.36-.63,1.9-.18,.27-.54,.36-.63,.54-.27,.36-.45,1.09-.54,1.36-.27,.81,0,1.27-.36,2.17-.36,.72-1.09,1.54-1.72,1.72-.27,.09-.45,.09-.63,.09-.45,0-.54-.27-1.09-.54-.81-.27-1.81-1.09-1.81-1.81s.45-2.53,1-3.62c.9-1.9,.72-3.71,1.81-5.7,.18-.36,1.09-.81,1.18-1.17v-1.27c.18-1.45,1.09-2.99,1.63-4.43,.63-1.45,.81-3.08,1.54-4.34,.18-.18,.36-.72,.36-1.09,0-.18-.09-.36-.27-.36-.63,1.27-1.99,1.9-2.71,3.08Z"/></g><g><path class="b" d="M126.02,36.98v-.58h.11c1.88,0,2.01-.25,2.01-1.74v-7.08c0-1.49-.13-1.74-2.01-1.74h-.11v-.58h8.69l.23,2.7h-.6l-.16-1.03c-.15-.92-.36-1.09-1-1.09h-4.42c-.04,1.63-.04,3.26-.04,4.89h4.76v.58h-4.76c0,1.7,0,3.39,.04,5.09h4.72c.49,0,.82-.11,1.01-1.39l.11-.72h.56l-.22,2.7h-8.94Z"/><path class="b" d="M145.31,36.4h.58c.65,0,.8-.2,1.19-1.25l3.66-9.88h.8l3.64,9.88c.38,1.03,.54,1.25,1.19,1.25h.58v.58h-4.16v-.56h.89c1.27,0,1.21-.31,.94-1.07l-.83-2.32h-5.29l-.83,2.32c-.27,.76-.31,1.07,.83,1.07h.98v.56h-4.16v-.58Zm8.26-3.95l-2.14-5.94c-.07-.18-.13-.2-.31-.2s-.23,.02-.31,.2l-2.12,5.94h4.87Z"/><path class="b" d="M168.05,35.33h-.05c0,.61,.07,1.16,.14,1.59l-.04,.05h-.65v-3.37l.07-.07h.47c.18,1.66,1.54,2.95,3.38,2.95,1.18,0,2.95-.54,2.95-2.32,0-1.32-1.19-2.15-2.55-2.68l-1.41-.54c-.92-.36-2.66-1.16-2.66-2.92s1.32-2.97,3.21-2.97c1.36,0,2.59,.6,3.17,1.86h.04c0-.67-.07-1.21-.14-1.63l.04-.05h.65v3.4l-.07,.07h-.47c-.14-1.57-1.48-2.95-3.2-2.95-1.45,0-2.61,.85-2.61,2.19,0,1.45,1.16,1.95,2.37,2.44l1.12,.45c1.92,.78,3.11,1.61,3.11,3.28,0,1.81-1.4,3.06-3.55,3.06-1.54,0-2.84-.8-3.31-1.86Z"/><path class="b" d="M188.64,36.98v-.58h.11c1.88,0,2.01-.25,2.01-1.74v-2.28l-2.84-4.92c-.78-1.36-.9-1.61-2.57-1.61h-.13v-.58h4.43v.58h-.11c-1.48,0-1.74,.25-.98,1.61l2.46,4.27,2.37-4.27c.74-1.36,.49-1.61-.99-1.61h-.11v-.58h4.45v.58h-.13c-1.67,0-1.79,.25-2.55,1.61l-2.75,4.92v2.28c0,1.48,.13,1.74,2.01,1.74h.11v.58h-4.8Z"/><path class="b" d="M219.48,33.14h-2.43v-.49h2.43v-2.44h.49v2.44h2.43v.49h-2.43v2.44h-.49v-2.44Z"/><path class="b" d="M252.56,36.98v-.58h.11c1.88,0,2.01-.25,2.01-1.74v-3.53h-7.85v3.53c0,1.48,.13,1.74,2.01,1.74h.11v.58h-4.83v-.58h.11c1.88,0,2.01-.25,2.01-1.74v-7.08c0-1.49-.13-1.74-2.01-1.74h-.11v-.58h4.83v.58h-.11c-1.88,0-2.01,.25-2.01,1.74v2.97h7.85v-2.97c0-1.49-.13-1.74-2.01-1.74h-.11v-.58h4.83v.58h-.11c-1.88,0-2.01,.25-2.01,1.74v7.08c0,1.48,.13,1.74,2.01,1.74h.11v.58h-4.83Z"/><path class="b" d="M267.66,36.98v-.58h.11c1.88,0,2.01-.25,2.01-1.74v-7.08c0-1.49-.13-1.74-2.01-1.74h-.11v-.58h8.69l.24,2.7h-.6l-.16-1.03c-.14-.92-.36-1.09-.99-1.09h-4.42c-.04,1.63-.04,3.26-.04,4.89h4.76v.58h-4.76c0,1.7,0,3.39,.04,5.09h4.72c.49,0,.82-.11,1.01-1.39l.11-.72h.56l-.22,2.7h-8.94Z"/><path class="b" d="M286.95,36.4h.58c.65,0,.8-.2,1.2-1.25l3.65-9.88h.8l3.64,9.88c.38,1.03,.54,1.25,1.19,1.25h.58v.58h-4.16v-.56h.89c1.27,0,1.21-.31,.94-1.07l-.83-2.32h-5.29l-.83,2.32c-.27,.76-.31,1.07,.83,1.07h.98v.56h-4.16v-.58Zm8.25-3.95l-2.14-5.94c-.07-.18-.13-.2-.31-.2s-.23,.02-.31,.2l-2.12,5.94h4.87Z"/><path class="b" d="M313.26,36.4h.11v.58h-4.82v-.58h.11c1.88,0,2.01-.25,2.01-1.74v-7.08c0-1.49-.13-1.74-2.01-1.74h-.11v-.58h5.32c2.25,0,3.87,1.16,3.87,3.11,0,2.08-1.34,2.95-2.79,3.26l2.1,3.19c.87,1.3,1.23,1.57,2.35,1.57h.11v.58h-3.86v-.58h.07c1.3,0,1.48-.25,.62-1.57l-2.03-3.08c-.27,.02-.54,.04-.8,.04h-2.28v2.88c0,1.48,.13,1.74,2.01,1.74Zm.47-5.2c1.97,0,3.44-.74,3.44-2.64,0-1.56-1.21-2.71-3.31-2.71h-2.61v5.36h2.48Z"/><path class="b" d="M331.58,36.98v-.58h.11c1.88,0,2.01-.25,2.01-1.74v-8.82h-2.5c-.51,0-.89,.16-1.03,1.25l-.15,1.03h-.58l.31-2.86h8.47l.31,2.86h-.58l-.15-1.03c-.14-1.09-.52-1.25-1.03-1.25h-2.5v8.82c0,1.48,.13,1.74,2.01,1.74h.11v.58h-4.82Z"/><path class="b" d="M351.83,36.98v-.58h.11c1.88,0,2.01-.25,2.01-1.74v-2.28l-2.84-4.92c-.78-1.36-.91-1.61-2.57-1.61h-.13v-.58h4.43v.58h-.11c-1.48,0-1.74,.25-.98,1.61l2.46,4.27,2.37-4.27c.74-1.36,.49-1.61-1-1.61h-.11v-.58h4.45v.58h-.13c-1.67,0-1.79,.25-2.55,1.61l-2.75,4.92v2.28c0,1.48,.13,1.74,2.01,1.74h.11v.58h-4.8Z"/></g></svg>