<svg width="220" height="200" viewBox="0 0 220 200" fill="none" xmlns="http://www.w3.org/2000/svg">
<path d="M33.2493 169.611C28.283 169.611 24.0158 167.989 20.4476 164.745C16.8794 161.501 15.0952 157.622 15.0952 153.107V46.8932C15.0952 42.346 16.8794 38.4389 20.4476 35.1719C24.0158 31.9051 28.283 30.2717 33.2493 30.2717H186.751C191.753 30.2717 196.051 31.9051 199.645 35.1719C203.238 38.4389 205.035 42.346 205.035 46.8932V153.107C205.035 157.622 203.238 161.501 199.645 164.745C196.051 167.989 191.753 169.611 186.751 169.611H33.2493ZM110 107.518L33.2493 61.0601V153.107H186.751V61.0601L110 107.518ZM110 92.3098L185.834 46.8932H34.3952L110 92.3098ZM33.2493 61.0601V46.8932V153.107V61.0601Z" fill="#D9D9D9"/>
<path d="M109.971 120.699L107.335 118.33C103.595 114.903 100.513 111.946 98.0877 109.459C95.6624 106.972 93.7282 104.745 92.285 102.779C90.8417 100.812 89.8337 99.0234 89.2607 97.4119C88.6878 95.8003 88.4014 94.1665 88.4014 92.5104C88.4014 89.1695 89.5204 86.3751 91.7585 84.1272C93.9965 81.8793 96.7687 80.7554 100.075 80.7554C102.034 80.7554 103.851 81.1947 105.525 82.0733C107.2 82.9519 108.681 84.2374 109.971 85.9297C111.468 84.1332 113.023 82.8217 114.636 81.9952C116.248 81.1686 117.992 80.7554 119.867 80.7554C123.192 80.7554 125.979 81.8793 128.227 84.1272C130.475 86.3751 131.599 89.1695 131.599 92.5104C131.599 94.1665 131.312 95.7954 130.739 97.3971C130.167 98.9989 129.159 100.783 127.715 102.749C126.272 104.716 124.333 106.947 121.898 109.444C119.463 111.941 116.375 114.903 112.636 118.33L109.971 120.699Z" fill="#4F5358"/>
</svg>
